<svg xmlns="http://www.w3.org/2000/svg" viewBox="0 0 37 37" shape-rendering="crispEdges" role="img" aria-label="QR code linking to this page"><rect width="37" height="37" fill="#e8ebe6"/><path d="M2 2h7v1H2zM12 2h1v1H12zM15 2h1v1H15zM18 2h6v1H18zM25 2h1v1H25zM28 2h7v1H28zM2 3h1v1H2zM8 3h1v1H8zM13 3h1v1H13zM15 3h3v1H15zM19 3h1v1H19zM23 3h1v1H23zM26 3h1v1H26zM28 3h1v1H28zM34 3h1v1H34zM2 4h1v1H2zM4 4h3v1H4zM8 4h1v1H8zM10 4h4v1H10zM15 4h1v1H15zM17 4h4v1H17zM22 4h3v1H22zM26 4h1v1H26zM28 4h1v1H28zM30 4h3v1H30zM34 4h1v1H34zM2 5h1v1H2zM4 5h3v1H4zM8 5h1v1H8zM10 5h4v1H10zM16 5h1v1H16zM18 5h1v1H18zM22 5h1v1H22zM24 5h3v1H24zM28 5h1v1H28zM30 5h3v1H30zM34 5h1v1H34zM2 6h1v1H2zM4 6h3v1H4zM8 6h1v1H8zM10 6h1v1H10zM13 6h3v1H13zM17 6h1v1H17zM19 6h2v1H19zM23 6h3v1H23zM28 6h1v1H28zM30 6h3v1H30zM34 6h1v1H34zM2 7h1v1H2zM8 7h1v1H8zM10 7h2v1H10zM14 7h5v1H14zM20 7h1v1H20zM22 7h3v1H22zM28 7h1v1H28zM34 7h1v1H34zM2 8h7v1H2zM10 8h1v1H10zM12 8h1v1H12zM14 8h1v1H14zM16 8h1v1H16zM18 8h1v1H18zM20 8h1v1H20zM22 8h1v1H22zM24 8h1v1H24zM26 8h1v1H26zM28 8h7v1H28zM10 9h1v1H10zM12 9h3v1H12zM16 9h2v1H16zM20 9h1v1H20zM23 9h1v1H23zM2 10h1v1H2zM4 10h5v1H4zM11 10h1v1H11zM13 10h5v1H13zM19 10h1v1H19zM22 10h1v1H22zM24 10h3v1H24zM28 10h5v1H28zM2 11h1v1H2zM9 11h4v1H9zM14 11h1v1H14zM18 11h1v1H18zM21 11h3v1H21zM25 11h1v1H25zM28 11h2v1H28zM31 11h2v1H31zM34 11h1v1H34zM2 12h5v1H2zM8 12h3v1H8zM12 12h1v1H12zM14 12h1v1H14zM17 12h2v1H17zM20 12h1v1H20zM22 12h1v1H22zM30 12h1v1H30zM32 12h1v1H32zM2 13h3v1H2zM7 13h1v1H7zM10 13h1v1H10zM12 13h1v1H12zM14 13h1v1H14zM16 13h1v1H16zM18 13h1v1H18zM23 13h1v1H23zM25 13h2v1H25zM28 13h1v1H28zM30 13h3v1H30zM3 14h2v1H3zM7 14h2v1H7zM12 14h3v1H12zM20 14h2v1H20zM24 14h1v1H24zM26 14h2v1H26zM29 14h3v1H29zM33 14h2v1H33zM2 15h2v1H2zM5 15h1v1H5zM7 15h1v1H7zM10 15h1v1H10zM12 15h2v1H12zM16 15h3v1H16zM22 15h2v1H22zM25 15h1v1H25zM28 15h1v1H28zM31 15h1v1H31zM33 15h2v1H33zM3 16h2v1H3zM8 16h1v1H8zM12 16h1v1H12zM14 16h1v1H14zM16 16h1v1H16zM21 16h1v1H21zM23 16h2v1H23zM26 16h3v1H26zM31 16h3v1H31zM3 17h2v1H3zM6 17h1v1H6zM10 17h2v1H10zM13 17h1v1H13zM18 17h1v1H18zM21 17h4v1H21zM26 17h3v1H26zM30 17h3v1H30zM2 18h1v1H2zM6 18h1v1H6zM8 18h1v1H8zM13 18h1v1H13zM19 18h1v1H19zM21 18h1v1H21zM24 18h4v1H24zM29 18h3v1H29zM34 18h1v1H34zM5 19h2v1H5zM13 19h1v1H13zM15 19h1v1H15zM19 19h4v1H19zM25 19h1v1H25zM28 19h2v1H28zM31 19h2v1H31zM34 19h1v1H34zM7 20h4v1H7zM13 20h1v1H13zM17 20h3v1H17zM22 20h1v1H22zM26 20h2v1H26zM29 20h2v1H29zM32 20h2v1H32zM3 21h1v1H3zM5 21h2v1H5zM9 21h4v1H9zM14 21h2v1H14zM18 21h8v1H18zM27 21h1v1H27zM29 21h5v1H29zM4 22h2v1H4zM8 22h2v1H8zM11 22h1v1H11zM16 22h1v1H16zM18 22h1v1H18zM22 22h1v1H22zM25 22h3v1H25zM29 22h3v1H29zM2 23h2v1H2zM6 23h2v1H6zM9 23h4v1H9zM14 23h1v1H14zM17 23h1v1H17zM20 23h1v1H20zM25 23h1v1H25zM28 23h2v1H28zM31 23h2v1H31zM34 23h1v1H34zM2 24h1v1H2zM8 24h1v1H8zM10 24h4v1H10zM15 24h1v1H15zM17 24h4v1H17zM22 24h3v1H22zM30 24h1v1H30zM32 24h2v1H32zM2 25h1v1H2zM4 25h1v1H4zM7 25h1v1H7zM10 25h1v1H10zM15 25h1v1H15zM17 25h1v1H17zM20 25h1v1H20zM23 25h4v1H23zM28 25h2v1H28zM31 25h2v1H31zM2 26h1v1H2zM5 26h1v1H5zM8 26h1v1H8zM10 26h6v1H10zM17 26h1v1H17zM19 26h2v1H19zM24 26h1v1H24zM26 26h6v1H26zM10 27h1v1H10zM12 27h2v1H12zM15 27h1v1H15zM18 27h1v1H18zM20 27h3v1H20zM26 27h1v1H26zM30 27h1v1H30zM32 27h1v1H32zM34 27h1v1H34zM2 28h7v1H2zM12 28h2v1H12zM16 28h3v1H16zM20 28h1v1H20zM24 28h3v1H24zM28 28h1v1H28zM30 28h1v1H30zM32 28h2v1H32zM2 29h1v1H2zM8 29h1v1H8zM10 29h1v1H10zM13 29h1v1H13zM16 29h2v1H16zM21 29h6v1H21zM30 29h5v1H30zM2 30h1v1H2zM4 30h3v1H4zM8 30h1v1H8zM10 30h3v1H10zM14 30h1v1H14zM20 30h2v1H20zM23 30h1v1H23zM26 30h6v1H26zM2 31h1v1H2zM4 31h3v1H4zM8 31h1v1H8zM10 31h2v1H10zM13 31h1v1H13zM15 31h1v1H15zM17 31h3v1H17zM22 31h1v1H22zM25 31h3v1H25zM30 31h5v1H30zM2 32h1v1H2zM4 32h3v1H4zM8 32h1v1H8zM10 32h3v1H10zM19 32h1v1H19zM21 32h1v1H21zM24 32h3v1H24zM28 32h2v1H28zM32 32h1v1H32zM2 33h1v1H2zM8 33h1v1H8zM12 33h2v1H12zM16 33h1v1H16zM18 33h1v1H18zM20 33h5v1H20zM27 33h2v1H27zM30 33h3v1H30zM2 34h7v1H2zM10 34h2v1H10zM13 34h2v1H13zM16 34h1v1H16zM19 34h1v1H19zM21 34h1v1H21zM25 34h2v1H25zM28 34h2v1H28zM31 34h1v1H31zM33 34h1v1H33z" fill="#0b0d0f"/></svg>